<svg width="120" height="52" viewBox="0 0 120 52" fill="none" xmlns="http://www.w3.org/2000/svg">
<rect width="120" height="52" fill="#201D1D"/>
<path d="M55.6406 33.7617C55.0625 34.5898 54.2539 35.2109 53.2148 35.625C52.1836 36.0312 50.9805 36.2344 49.6055 36.2344C48.2148 36.2344 46.9805 35.9102 45.9023 35.2617C44.8242 34.6055 43.9883 33.6758 43.3945 32.4727C42.8086 31.2695 42.5078 29.875 42.4922 28.2891V26.8008C42.4922 24.2305 43.0898 22.2383 44.2852 20.8242C45.4883 19.4102 47.1758 18.7031 49.3477 18.7031C51.1289 18.7031 52.5625 19.1602 53.6484 20.0742C54.7344 20.9805 55.3984 22.2695 55.6406 23.9414H53.3906C52.9688 21.6836 51.625 20.5547 49.3594 20.5547C47.8516 20.5547 46.707 21.0859 45.9258 22.1484C45.1523 23.2031 44.7617 24.7344 44.7539 26.7422V28.1367C44.7539 30.0508 45.1914 31.5742 46.0664 32.707C46.9414 33.832 48.125 34.3945 49.6172 34.3945C50.4609 34.3945 51.1992 34.3008 51.832 34.1133C52.4648 33.9258 52.9883 33.6094 53.4023 33.1641V29.332H49.4531V27.5039H55.6406V33.7617ZM61.418 36H59.25V23.3203H61.418V36ZM59.0742 19.957C59.0742 19.6055 59.1797 19.3086 59.3906 19.0664C59.6094 18.8242 59.9297 18.7031 60.3516 18.7031C60.7734 18.7031 61.0938 18.8242 61.3125 19.0664C61.5312 19.3086 61.6406 19.6055 61.6406 19.957C61.6406 20.3086 61.5312 20.6016 61.3125 20.8359C61.0938 21.0703 60.7734 21.1875 60.3516 21.1875C59.9297 21.1875 59.6094 21.0703 59.3906 20.8359C59.1797 20.6016 59.0742 20.3086 59.0742 19.957ZM67.8398 20.25V23.3203H70.207V24.9961H67.8398V32.8594C67.8398 33.3672 67.9453 33.75 68.1562 34.0078C68.3672 34.2578 68.7266 34.3828 69.2344 34.3828C69.4844 34.3828 69.8281 34.3359 70.2656 34.2422V36C69.6953 36.1562 69.1406 36.2344 68.6016 36.2344C67.6328 36.2344 66.9023 35.9414 66.4102 35.3555C65.918 34.7695 65.6719 33.9375 65.6719 32.8594V24.9961H63.3633V23.3203H65.6719V20.25H67.8398ZM86.2031 36H83.9414V28.1133H75.3398V36H73.0898V18.9375H75.3398V26.2734H83.9414V18.9375H86.2031V36ZM97.6875 34.7461C96.8438 35.7383 95.6055 36.2344 93.9727 36.2344C92.6211 36.2344 91.5898 35.8438 90.8789 35.0625C90.1758 34.2734 89.8203 33.1094 89.8125 31.5703V23.3203H91.9805V31.5117C91.9805 33.4336 92.7617 34.3945 94.3242 34.3945C95.9805 34.3945 97.082 33.7773 97.6289 32.543V23.3203H99.7969V36H97.7344L97.6875 34.7461ZM113.836 29.8008C113.836 31.7383 113.391 33.2969 112.5 34.4766C111.609 35.6484 110.414 36.2344 108.914 36.2344C107.312 36.2344 106.074 35.668 105.199 34.5352L105.094 36H103.102V18H105.27V24.7148C106.145 23.6289 107.352 23.0859 108.891 23.0859C110.43 23.0859 111.637 23.668 112.512 24.832C113.395 25.9961 113.836 27.5898 113.836 29.6133V29.8008ZM111.668 29.5547C111.668 28.0781 111.383 26.9375 110.812 26.1328C110.242 25.3281 109.422 24.9258 108.352 24.9258C106.922 24.9258 105.895 25.5898 105.27 26.918V32.4023C105.934 33.7305 106.969 34.3945 108.375 34.3945C109.414 34.3945 110.223 33.9922 110.801 33.1875C111.379 32.3828 111.668 31.1719 111.668 29.5547Z" fill="white"/>
<path d="M18 16C11.374 16 6 21.373 6 28C6 33.302 9.438 37.8 14.207 39.387C14.806 39.498 15 39.126 15 38.81V36.576C11.662 37.302 10.967 35.16 10.967 35.16C10.421 33.773 9.634 33.404 9.634 33.404C8.545 32.659 9.717 32.675 9.717 32.675C10.922 32.759 11.556 33.912 11.556 33.912C12.626 35.746 14.363 35.216 15.048 34.909C15.155 34.134 15.466 33.604 15.81 33.305C13.145 33 10.343 31.971 10.343 27.374C10.343 26.063 10.812 24.993 11.579 24.153C11.455 23.85 11.044 22.629 11.696 20.977C11.696 20.977 12.704 20.655 14.997 22.207C15.954 21.941 16.98 21.808 18 21.803C19.02 21.808 20.047 21.941 21.006 22.207C23.297 20.655 24.303 20.977 24.303 20.977C24.956 22.63 24.545 23.851 24.421 24.153C25.191 24.993 25.656 26.064 25.656 27.374C25.656 31.983 22.849 32.998 20.177 33.295C20.607 33.667 21 34.397 21 35.517V38.81C21 39.129 21.192 39.504 21.801 39.386C26.566 37.797 30 33.3 30 28C30 21.373 24.627 16 18 16Z" fill="white"/>
</svg>
