<svg width="127" height="52" viewBox="0 0 127 52" fill="none" xmlns="http://www.w3.org/2000/svg">
<rect width="127" height="52" fill="#201D1D"/>
<path d="M37.2539 34.1602H45.3398V36H34.9922V18.9375H37.2539V34.1602ZM49.9219 36H47.7539V23.3203H49.9219V36ZM47.5781 19.957C47.5781 19.6055 47.6836 19.3086 47.8945 19.0664C48.1133 18.8242 48.4336 18.7031 48.8555 18.7031C49.2773 18.7031 49.5977 18.8242 49.8164 19.0664C50.0352 19.3086 50.1445 19.6055 50.1445 19.957C50.1445 20.3086 50.0352 20.6016 49.8164 20.8359C49.5977 21.0703 49.2773 21.1875 48.8555 21.1875C48.4336 21.1875 48.1133 21.0703 47.8945 20.8359C47.6836 20.6016 47.5781 20.3086 47.5781 19.957ZM55.4531 23.3203L55.5234 24.9141C56.4922 23.6953 57.7578 23.0859 59.3203 23.0859C62 23.0859 63.3516 24.5977 63.375 27.6211V36H61.207V27.6094C61.1992 26.6953 60.9883 26.0195 60.5742 25.582C60.168 25.1445 59.5312 24.9258 58.6641 24.9258C57.9609 24.9258 57.3438 25.1133 56.8125 25.4883C56.2812 25.8633 55.8672 26.3555 55.5703 26.9648V36H53.4023V23.3203H55.4531ZM70.1836 30.1289L68.8242 31.5469V36H66.6562V18H68.8242V28.8867L69.9844 27.4922L73.9336 23.3203H76.5703L71.6367 28.6172L77.1445 36H74.6016L70.1836 30.1289ZM83.8359 36.2344C82.1172 36.2344 80.7188 35.6719 79.6406 34.5469C78.5625 33.4141 78.0234 31.9023 78.0234 30.0117V29.6133C78.0234 28.3555 78.2617 27.2344 78.7383 26.25C79.2227 25.2578 79.8945 24.4844 80.7539 23.9297C81.6211 23.3672 82.5586 23.0859 83.5664 23.0859C85.2148 23.0859 86.4961 23.6289 87.4102 24.7148C88.3242 25.8008 88.7812 27.3555 88.7812 29.3789V30.2812H80.1914C80.2227 31.5312 80.5859 32.543 81.2812 33.3164C81.9844 34.082 82.875 34.4648 83.9531 34.4648C84.7188 34.4648 85.3672 34.3086 85.8984 33.9961C86.4297 33.6836 86.8945 33.2695 87.293 32.7539L88.6172 33.7852C87.5547 35.418 85.9609 36.2344 83.8359 36.2344ZM83.5664 24.8672C82.6914 24.8672 81.957 25.1875 81.3633 25.8281C80.7695 26.4609 80.4023 27.3516 80.2617 28.5H86.6133V28.3359C86.5508 27.2344 86.2539 26.3828 85.7227 25.7812C85.1914 25.1719 84.4727 24.8672 83.5664 24.8672ZM90.7734 29.5547C90.7734 27.6094 91.2344 26.0469 92.1562 24.8672C93.0781 23.6797 94.2852 23.0859 95.7773 23.0859C97.2617 23.0859 98.4375 23.5938 99.3047 24.6094V18H101.473V36H99.4805L99.375 34.6406C98.5078 35.7031 97.3008 36.2344 95.7539 36.2344C94.2852 36.2344 93.0859 35.6328 92.1562 34.4297C91.2344 33.2266 90.7734 31.6562 90.7734 29.7188V29.5547ZM92.9414 29.8008C92.9414 31.2383 93.2383 32.3633 93.832 33.1758C94.4258 33.9883 95.2461 34.3945 96.293 34.3945C97.668 34.3945 98.6719 33.7773 99.3047 32.543V26.7188C98.6562 25.5234 97.6602 24.9258 96.3164 24.9258C95.2539 24.9258 94.4258 25.3359 93.832 26.1562C93.2383 26.9766 92.9414 28.1914 92.9414 29.8008ZM107.602 36H105.352V18.9375H107.602V36ZM113.438 23.3203L113.508 24.9141C114.477 23.6953 115.742 23.0859 117.305 23.0859C119.984 23.0859 121.336 24.5977 121.359 27.6211V36H119.191V27.6094C119.184 26.6953 118.973 26.0195 118.559 25.582C118.152 25.1445 117.516 24.9258 116.648 24.9258C115.945 24.9258 115.328 25.1133 114.797 25.4883C114.266 25.8633 113.852 26.3555 113.555 26.9648V36H111.387V23.3203H113.438Z" fill="white"/>
<path d="M22 16H8C5.239 16 3 18.239 3 21V35C3 37.761 5.239 40 8 40H22C24.762 40 27 37.761 27 35V21C27 18.239 24.762 16 22 16ZM11 35H8V24H11V35ZM9.5 22.732C8.534 22.732 7.75 21.942 7.75 20.968C7.75 19.994 8.534 19.204 9.5 19.204C10.466 19.204 11.25 19.994 11.25 20.968C11.25 21.942 10.467 22.732 9.5 22.732ZM23 35H20V29.396C20 26.028 16 26.283 16 29.396V35H13V24H16V25.765C17.396 23.179 23 22.988 23 28.241V35Z" fill="white"/>
</svg>
